<svg xmlns="http://www.w3.org/2000/svg" xmlns:xlink="http://www.w3.org/1999/xlink" width="500" zoomAndPan="magnify" viewBox="0 0 375 374.999991" height="500" preserveAspectRatio="xMidYMid meet" version="1.0"><defs><clipPath id="id1"><path d="M 146.621094 176.054688 L 199 176.054688 L 199 191 L 146.621094 191 Z M 146.621094 176.054688 " clip-rule="nonzero"/></clipPath><clipPath id="id2"><path d="M 167 187 L 228 187 L 228 199.304688 L 167 199.304688 Z M 167 187 " clip-rule="nonzero"/></clipPath></defs><path fill="#60838d" d="M 212.421875 184.628906 C 214.53125 184.089844 216.804688 184.789062 218.617188 186.007812 C 220.222656 187.089844 221.546875 188.550781 222.816406 190.039062 L 204.542969 190.039062 C 207.324219 188.566406 209.328125 185.417969 212.421875 184.628906 Z M 212.421875 184.628906 " fill-opacity="1" fill-rule="nonzero"/><g clip-path="url(#id1)"><path fill="#60838d" d="M 149.386719 187.597656 C 151.9375 185.1875 155.386719 182.761719 158.632812 184.027344 C 160.523438 184.761719 161.84375 186.613281 163.742188 187.3125 C 167.007812 188.507812 170.390625 185.902344 172.617188 183.203125 C 174.84375 180.5 177.074219 177.269531 180.492188 176.652344 C 183.566406 176.101562 186.605469 177.9375 188.761719 180.234375 C 190.921875 182.53125 192.515625 185.332031 194.738281 187.558594 C 195.761719 188.59375 196.925781 189.421875 198.234375 190.042969 L 146.621094 190.042969 C 147.59375 189.285156 148.515625 188.421875 149.386719 187.597656 Z M 149.386719 187.597656 " fill-opacity="1" fill-rule="nonzero"/></g><g clip-path="url(#id2)"><path fill="#d6cebb" d="M 167.503906 199.253906 C 169.851562 191.710938 176.992188 191.683594 179.804688 193.15625 C 181.558594 194.078125 183.039062 195.570312 184.929688 196.148438 C 188.742188 197.308594 190.785156 193.890625 193.921875 191.398438 C 197.058594 188.902344 200.457031 186.34375 203.847656 188.460938 C 206.753906 190.269531 210.183594 195.445312 213.367188 196.683594 C 215.179688 197.390625 217.214844 196.808594 219.046875 196.136719 C 220.878906 195.464844 222.785156 194.6875 224.699219 195.03125 C 226.613281 195.371094 228.378906 197.378906 227.691406 199.226562 Z M 167.503906 199.253906 " fill-opacity="1" fill-rule="nonzero"/></g></svg>