<svg xmlns="http://www.w3.org/2000/svg" xmlns:xlink="http://www.w3.org/1999/xlink" zoomAndPan="magnify" preserveAspectRatio="xMidYMid meet" version="1.0" viewBox="53.08 168 265.89 39.28"><defs><g><g id="id1"/></g><clipPath id="id2"><path d="M 53.078125 168 L 144 168 L 144 192 L 53.078125 192 Z M 53.078125 168 " clip-rule="nonzero"/></clipPath><clipPath id="id3"><path d="M 89 187 L 195 187 L 195 207.277344 L 89 207.277344 Z M 89 187 " clip-rule="nonzero"/></clipPath></defs><path fill="rgb(37.649536%, 51.368713%, 55.288696%)" d="M 167.777344 182.183594 C 171.457031 181.265625 175.417969 182.460938 178.578125 184.542969 C 181.378906 186.394531 183.683594 188.894531 185.894531 191.4375 L 154.046875 191.4375 C 158.890625 188.917969 162.382812 183.535156 167.777344 182.183594 Z M 167.777344 182.183594 " fill-opacity="1" fill-rule="nonzero"/><g clip-path="url(#id2)"><path fill="rgb(37.649536%, 51.368713%, 55.288696%)" d="M 57.902344 187.261719 C 62.347656 183.140625 68.359375 178.996094 74.019531 181.15625 C 77.316406 182.414062 79.613281 185.582031 82.925781 186.773438 C 88.617188 188.816406 94.511719 184.363281 98.394531 179.746094 C 102.277344 175.128906 106.164062 169.601562 112.121094 168.550781 C 117.484375 167.605469 122.78125 170.75 126.539062 174.675781 C 130.300781 178.601562 133.078125 183.390625 136.957031 187.195312 C 138.738281 188.96875 140.769531 190.382812 143.050781 191.445312 L 53.078125 191.445312 C 54.777344 190.148438 56.386719 188.671875 57.902344 187.261719 Z M 57.902344 187.261719 " fill-opacity="1" fill-rule="nonzero"/></g><g clip-path="url(#id3)"><path fill="rgb(83.918762%, 80.778503%, 73.329163%)" d="M 89.484375 207.195312 C 93.574219 194.296875 106.019531 194.25 110.925781 196.769531 C 113.980469 198.34375 116.5625 200.898438 119.855469 201.882812 C 126.5 203.867188 130.066406 198.023438 135.53125 193.757812 C 141 189.496094 146.921875 185.121094 152.835938 188.738281 C 157.898438 191.835938 163.878906 200.679688 169.425781 202.796875 C 172.589844 204.007812 176.132812 203.011719 179.328125 201.863281 C 182.519531 200.714844 185.84375 199.386719 189.179688 199.972656 C 192.511719 200.554688 195.589844 203.988281 194.394531 207.144531 Z M 89.484375 207.195312 " fill-opacity="1" fill-rule="nonzero"/></g><g fill="rgb(12.939453%, 26.269531%, 34.899902%)" fill-opacity="1"><g transform="translate(204.430889, 199.289651)"><g><path d="M 15.125 -12.375 C 14.644531 -13.394531 13.945312 -14.179688 13.03125 -14.734375 C 12.113281 -15.296875 11.046875 -15.578125 9.828125 -15.578125 C 8.609375 -15.578125 7.507812 -15.296875 6.53125 -14.734375 C 5.5625 -14.179688 4.796875 -13.382812 4.234375 -12.34375 C 3.679688 -11.300781 3.40625 -10.09375 3.40625 -8.71875 C 3.40625 -7.351562 3.679688 -6.15625 4.234375 -5.125 C 4.796875 -4.09375 5.5625 -3.296875 6.53125 -2.734375 C 7.507812 -2.179688 8.609375 -1.90625 9.828125 -1.90625 C 11.523438 -1.90625 12.921875 -2.410156 14.015625 -3.421875 C 15.117188 -4.441406 15.765625 -5.816406 15.953125 -7.546875 L 9 -7.546875 L 9 -9.40625 L 18.375 -9.40625 L 18.375 -7.65625 C 18.238281 -6.21875 17.785156 -4.898438 17.015625 -3.703125 C 16.253906 -2.515625 15.25 -1.570312 14 -0.875 C 12.75 -0.1875 11.359375 0.15625 9.828125 0.15625 C 8.210938 0.15625 6.738281 -0.222656 5.40625 -0.984375 C 4.070312 -1.742188 3.015625 -2.796875 2.234375 -4.140625 C 1.460938 -5.492188 1.078125 -7.019531 1.078125 -8.71875 C 1.078125 -10.425781 1.460938 -11.957031 2.234375 -13.3125 C 3.015625 -14.664062 4.070312 -15.722656 5.40625 -16.484375 C 6.738281 -17.242188 8.210938 -17.625 9.828125 -17.625 C 11.671875 -17.625 13.304688 -17.164062 14.734375 -16.25 C 16.160156 -15.332031 17.195312 -14.039062 17.84375 -12.375 Z M 15.125 -12.375 "/></g></g></g><g fill="rgb(12.939453%, 26.269531%, 34.899902%)" fill-opacity="1"><g transform="translate(223.877811, 199.289651)"><g><path d="M 4.203125 -1.84375 L 10.296875 -1.84375 L 10.296875 0 L 1.921875 0 L 1.921875 -17.421875 L 4.203125 -17.421875 Z M 4.203125 -1.84375 "/></g></g></g><g fill="rgb(12.939453%, 26.269531%, 34.899902%)" fill-opacity="1"><g transform="translate(234.6761, 199.289651)"><g><path d="M 9.828125 0.171875 C 8.210938 0.171875 6.738281 -0.203125 5.40625 -0.953125 C 4.070312 -1.710938 3.015625 -2.769531 2.234375 -4.125 C 1.460938 -5.488281 1.078125 -7.019531 1.078125 -8.71875 C 1.078125 -10.425781 1.460938 -11.957031 2.234375 -13.3125 C 3.015625 -14.664062 4.070312 -15.722656 5.40625 -16.484375 C 6.738281 -17.242188 8.210938 -17.625 9.828125 -17.625 C 11.460938 -17.625 12.945312 -17.242188 14.28125 -16.484375 C 15.613281 -15.722656 16.660156 -14.664062 17.421875 -13.3125 C 18.191406 -11.96875 18.578125 -10.4375 18.578125 -8.71875 C 18.578125 -7.007812 18.191406 -5.476562 17.421875 -4.125 C 16.660156 -2.769531 15.613281 -1.710938 14.28125 -0.953125 C 12.945312 -0.203125 11.460938 0.171875 9.828125 0.171875 Z M 9.828125 -1.796875 C 11.046875 -1.796875 12.140625 -2.078125 13.109375 -2.640625 C 14.085938 -3.210938 14.851562 -4.023438 15.40625 -5.078125 C 15.96875 -6.128906 16.25 -7.34375 16.25 -8.71875 C 16.25 -10.125 15.96875 -11.347656 15.40625 -12.390625 C 14.851562 -13.429688 14.09375 -14.234375 13.125 -14.796875 C 12.15625 -15.367188 11.054688 -15.65625 9.828125 -15.65625 C 8.585938 -15.65625 7.484375 -15.367188 6.515625 -14.796875 C 5.554688 -14.234375 4.796875 -13.429688 4.234375 -12.390625 C 3.679688 -11.347656 3.40625 -10.125 3.40625 -8.71875 C 3.40625 -7.34375 3.679688 -6.128906 4.234375 -5.078125 C 4.796875 -4.023438 5.5625 -3.210938 6.53125 -2.640625 C 7.507812 -2.078125 8.609375 -1.796875 9.828125 -1.796875 Z M 9.828125 -1.796875 "/></g></g></g><g fill="rgb(12.939453%, 26.269531%, 34.899902%)" fill-opacity="1"><g transform="translate(254.322984, 199.289651)"><g><path d="M 10.65625 -8.96875 C 11.28125 -8.875 11.851562 -8.617188 12.375 -8.203125 C 12.90625 -7.785156 13.320312 -7.265625 13.625 -6.640625 C 13.9375 -6.023438 14.09375 -5.367188 14.09375 -4.671875 C 14.09375 -3.785156 13.867188 -2.988281 13.421875 -2.28125 C 12.972656 -1.570312 12.316406 -1.015625 11.453125 -0.609375 C 10.597656 -0.203125 9.585938 0 8.421875 0 L 1.921875 0 L 1.921875 -17.421875 L 8.171875 -17.421875 C 9.359375 -17.421875 10.367188 -17.222656 11.203125 -16.828125 C 12.035156 -16.441406 12.660156 -15.914062 13.078125 -15.25 C 13.492188 -14.582031 13.703125 -13.832031 13.703125 -13 C 13.703125 -11.96875 13.421875 -11.113281 12.859375 -10.4375 C 12.304688 -9.757812 11.570312 -9.269531 10.65625 -8.96875 Z M 4.203125 -9.90625 L 8.03125 -9.90625 C 9.09375 -9.90625 9.914062 -10.15625 10.5 -10.65625 C 11.082031 -11.15625 11.375 -11.84375 11.375 -12.71875 C 11.375 -13.601562 11.082031 -14.296875 10.5 -14.796875 C 9.914062 -15.296875 9.070312 -15.546875 7.96875 -15.546875 L 4.203125 -15.546875 Z M 8.21875 -1.875 C 9.351562 -1.875 10.238281 -2.140625 10.875 -2.671875 C 11.507812 -3.203125 11.828125 -3.945312 11.828125 -4.90625 C 11.828125 -5.863281 11.492188 -6.625 10.828125 -7.1875 C 10.160156 -7.75 9.269531 -8.03125 8.15625 -8.03125 L 4.203125 -8.03125 L 4.203125 -1.875 Z M 8.21875 -1.875 "/></g></g></g><g fill="rgb(12.939453%, 26.269531%, 34.899902%)" fill-opacity="1"><g transform="translate(269.645557, 199.289651)"><g><path d="M 12.21875 -3.875 L 4.625 -3.875 L 3.21875 0 L 0.828125 0 L 7.125 -17.328125 L 9.75 -17.328125 L 16.03125 0 L 13.625 0 Z M 11.578125 -5.71875 L 8.421875 -14.53125 L 5.28125 -5.71875 Z M 11.578125 -5.71875 "/></g></g></g><g fill="rgb(12.939453%, 26.269531%, 34.899902%)" fill-opacity="1"><g transform="translate(286.492884, 199.289651)"><g><path d="M 4.203125 -1.84375 L 10.296875 -1.84375 L 10.296875 0 L 1.921875 0 L 1.921875 -17.421875 L 4.203125 -17.421875 Z M 4.203125 -1.84375 "/></g></g></g><g fill="rgb(12.939453%, 26.269531%, 34.899902%)" fill-opacity="1"><g transform="translate(297.291174, 199.289651)"><g/></g></g><g fill="rgb(12.939453%, 26.269531%, 34.899902%)" fill-opacity="1"><g transform="translate(303.965116, 199.289651)"><g><path d="M 4.203125 -1.84375 L 10.296875 -1.84375 L 10.296875 0 L 1.921875 0 L 1.921875 -17.421875 L 4.203125 -17.421875 Z M 4.203125 -1.84375 "/></g></g></g><g fill="rgb(12.939453%, 26.269531%, 34.899902%)" fill-opacity="1"><g transform="translate(314.763405, 199.289651)"><g><path d="M 4.203125 -17.421875 L 4.203125 0 L 1.921875 0 L 1.921875 -17.421875 Z M 4.203125 -17.421875 "/></g></g></g></svg>